<svg width="253" height="195" viewBox="0 0 253 195" fill="none" xmlns="http://www.w3.org/2000/svg">
<path d="M57.6535 95.8511L4.12644 169.44C2.3039 171.945 3.89918 175.482 6.98369 175.775L201.98 194.261C203.519 194.407 205.004 193.653 205.795 192.324L249.779 118.413C251.278 115.894 249.648 112.672 246.732 112.386L61.2782 94.2231C59.8668 94.0849 58.4877 94.7043 57.6535 95.8511Z" fill="white" stroke="white" stroke-linecap="round" stroke-linejoin="round"/>
<path fill-rule="evenodd" clip-rule="evenodd" d="M85.5862 104.828L78.314 132.314L85.6859 139.686L113.172 132.414L117.862 100.138L85.5862 104.828Z" fill="#FED0AC"/>
<path d="M78.314 132.314L73.6292 142.295C73.0085 143.617 74.3825 144.991 75.7049 144.371L85.6859 139.686L78.314 132.314Z" fill="#4C4C4C"/>
<path d="M104.069 123.31L188.207 39.1724L197.31 48.2758L113.172 132.414L110.828 125.655L104.069 123.31Z" fill="#D98349"/>
<path d="M94.6896 113.931L178.827 29.7932L188.207 39.1725L104.069 123.31L101.586 116.414L94.6896 113.931Z" fill="#FFCE31"/>
<path d="M85.5862 104.827L169.724 20.6895L178.828 29.7929L94.6896 113.931L92.3448 107.172L85.5862 104.827Z" fill="#FFDF85"/>
<path d="M169.724 20.6897L184.897 5.51729C187.944 2.4702 192.884 2.4702 195.931 5.51728L212.483 22.069C215.53 25.1161 215.53 30.0564 212.483 33.1035L197.31 48.2759L169.724 20.6897Z" fill="#F99F9F"/>
<rect x="167.241" y="23.1724" width="7.0223" height="39.0128" transform="rotate(-45 167.241 23.1724)" fill="#747474"/>
</svg>
