<svg width="227" height="227" viewBox="0 0 227 227" fill="none" xmlns="http://www.w3.org/2000/svg">
<rect x="93" y="96" width="40" height="28" fill="#84B0F1"/>
<rect x="13" y="96" width="40" height="28" fill="#4894FE"/>
<rect x="173" y="96" width="40" height="28" fill="#4894FE"/>
<rect x="95" y="58" width="16" height="36" rx="8" stroke="#84B0F1" stroke-width="4"/>
<rect x="-2" y="2" width="16" height="36" rx="8" transform="matrix(-1 0 0 1 129 56)" stroke="#84B0F1" stroke-width="4"/>
<rect x="13" y="85" width="200" height="11" fill="#4894FE"/>
<rect x="15" y="49" width="16" height="45" rx="8" stroke="#4894FE" stroke-width="4"/>
<rect x="-2" y="2" width="16" height="45" rx="8" transform="matrix(-1 0 0 1 209 47)" stroke="#4894FE" stroke-width="4"/>
<rect x="35" y="34" width="16" height="60" rx="8" stroke="#4894FE" stroke-width="4"/>
<rect x="-2" y="2" width="16" height="60" rx="8" transform="matrix(-1 0 0 1 189 32)" stroke="#4894FE" stroke-width="4"/>
<rect x="55" y="27" width="16" height="67" rx="8" stroke="#4894FE" stroke-width="4"/>
<rect x="-2" y="2" width="16" height="67" rx="8" transform="matrix(-1 0 0 1 169 25)" stroke="#4894FE" stroke-width="4"/>
<rect x="75" y="31" width="16" height="63" rx="8" stroke="#4894FE" stroke-width="4"/>
<rect x="-2" y="2" width="16" height="63" rx="8" transform="matrix(-1 0 0 1 149 29)" stroke="#4894FE" stroke-width="4"/>
<rect x="97" y="96" width="32" height="24" fill="#4894FE"/>
<rect x="93" y="85" width="40" height="4" fill="#84B0F1"/>
<path d="M1.056 177.736C1.056 175.517 1.536 173.544 2.496 171.816C3.456 170.067 4.78933 168.712 6.496 167.752C8.224 166.771 10.176 166.28 12.352 166.28C15.0187 166.28 17.3013 166.984 19.2 168.392C21.0987 169.8 22.368 171.72 23.008 174.152H16.992C16.544 173.213 15.904 172.499 15.072 172.008C14.2613 171.517 13.3333 171.272 12.288 171.272C10.6027 171.272 9.23733 171.859 8.192 173.032C7.14667 174.205 6.624 175.773 6.624 177.736C6.624 179.699 7.14667 181.267 8.192 182.44C9.23733 183.613 10.6027 184.2 12.288 184.2C13.3333 184.2 14.2613 183.955 15.072 183.464C15.904 182.973 16.544 182.259 16.992 181.32H23.008C22.368 183.752 21.0987 185.672 19.2 187.08C17.3013 188.467 15.0187 189.16 12.352 189.16C10.176 189.16 8.224 188.68 6.496 187.72C4.78933 186.739 3.456 185.384 2.496 183.656C1.536 181.928 1.056 179.955 1.056 177.736ZM25.271 180.04C25.271 178.205 25.6123 176.595 26.295 175.208C26.999 173.821 27.9483 172.755 29.143 172.008C30.3377 171.261 31.671 170.888 33.143 170.888C34.4017 170.888 35.5003 171.144 36.439 171.656C37.399 172.168 38.135 172.84 38.647 173.672V171.144H44.119V189H38.647V186.472C38.1137 187.304 37.367 187.976 36.407 188.488C35.4683 189 34.3697 189.256 33.111 189.256C31.6603 189.256 30.3377 188.883 29.143 188.136C27.9483 187.368 26.999 186.291 26.295 184.904C25.6123 183.496 25.271 181.875 25.271 180.04ZM38.647 180.072C38.647 178.707 38.263 177.629 37.495 176.84C36.7483 176.051 35.831 175.656 34.743 175.656C33.655 175.656 32.727 176.051 31.959 176.84C31.2123 177.608 30.839 178.675 30.839 180.04C30.839 181.405 31.2123 182.493 31.959 183.304C32.727 184.093 33.655 184.488 34.743 184.488C35.831 184.488 36.7483 184.093 37.495 183.304C38.263 182.515 38.647 181.437 38.647 180.072ZM53.5498 174.12C54.1898 173.139 54.9898 172.371 55.9498 171.816C56.9098 171.24 57.9764 170.952 59.1498 170.952V176.744H57.6458C56.2804 176.744 55.2564 177.043 54.5738 177.64C53.8911 178.216 53.5498 179.24 53.5498 180.712V189H48.0778V171.144H53.5498V174.12ZM64.5173 169.288C63.5573 169.288 62.7679 169.011 62.1493 168.456C61.5519 167.88 61.2533 167.176 61.2533 166.344C61.2533 165.491 61.5519 164.787 62.1493 164.232C62.7679 163.656 63.5573 163.368 64.5173 163.368C65.4559 163.368 66.2239 163.656 66.8213 164.232C67.4399 164.787 67.7493 165.491 67.7493 166.344C67.7493 167.176 67.4399 167.88 66.8213 168.456C66.2239 169.011 65.4559 169.288 64.5173 169.288ZM67.2373 171.144V189H61.7653V171.144H67.2373ZM82.0828 170.952C84.1734 170.952 85.8374 171.635 87.0748 173C88.3334 174.344 88.9628 176.2 88.9628 178.568V189H83.5228V179.304C83.5228 178.109 83.2134 177.181 82.5948 176.52C81.9761 175.859 81.1441 175.528 80.0988 175.528C79.0534 175.528 78.2214 175.859 77.6028 176.52C76.9841 177.181 76.6748 178.109 76.6748 179.304V189H71.2028V171.144H76.6748V173.512C77.2294 172.723 77.9761 172.104 78.9148 171.656C79.8534 171.187 80.9094 170.952 82.0828 170.952ZM99.5493 170.888C100.808 170.888 101.907 171.144 102.845 171.656C103.805 172.168 104.541 172.84 105.053 173.672V171.144H110.525V188.968C110.525 190.611 110.195 192.093 109.533 193.416C108.893 194.76 107.901 195.827 106.557 196.616C105.235 197.405 103.581 197.8 101.597 197.8C98.9519 197.8 96.8079 197.171 95.1653 195.912C93.5226 194.675 92.5839 192.989 92.3493 190.856H97.7573C97.9279 191.539 98.3333 192.072 98.9733 192.456C99.6133 192.861 100.403 193.064 101.341 193.064C102.472 193.064 103.368 192.733 104.029 192.072C104.712 191.432 105.053 190.397 105.053 188.968V186.44C104.52 187.272 103.784 187.955 102.845 188.488C101.907 189 100.808 189.256 99.5493 189.256C98.0773 189.256 96.7439 188.883 95.5493 188.136C94.3546 187.368 93.4053 186.291 92.7013 184.904C92.0186 183.496 91.6773 181.875 91.6773 180.04C91.6773 178.205 92.0186 176.595 92.7013 175.208C93.4053 173.821 94.3546 172.755 95.5493 172.008C96.7439 171.261 98.0773 170.888 99.5493 170.888ZM105.053 180.072C105.053 178.707 104.669 177.629 103.901 176.84C103.155 176.051 102.237 175.656 101.149 175.656C100.061 175.656 99.1333 176.051 98.3653 176.84C97.6186 177.608 97.2453 178.675 97.2453 180.04C97.2453 181.405 97.6186 182.493 98.3653 183.304C99.1333 184.093 100.061 184.488 101.149 184.488C102.237 184.488 103.155 184.093 103.901 183.304C104.669 182.515 105.053 181.437 105.053 180.072ZM134.865 177.48C136.167 177.757 137.212 178.408 138.001 179.432C138.791 180.435 139.185 181.587 139.185 182.888C139.185 184.765 138.524 186.259 137.201 187.368C135.9 188.456 134.076 189 131.729 189H121.265V166.536H131.377C133.66 166.536 135.441 167.059 136.721 168.104C138.023 169.149 138.673 170.568 138.673 172.36C138.673 173.683 138.321 174.781 137.617 175.656C136.935 176.531 136.017 177.139 134.865 177.48ZM126.737 175.624H130.321C131.217 175.624 131.9 175.432 132.369 175.048C132.86 174.643 133.105 174.056 133.105 173.288C133.105 172.52 132.86 171.933 132.369 171.528C131.9 171.123 131.217 170.92 130.321 170.92H126.737V175.624ZM130.769 184.584C131.687 184.584 132.391 184.381 132.881 183.976C133.393 183.549 133.649 182.941 133.649 182.152C133.649 181.363 133.383 180.744 132.849 180.296C132.337 179.848 131.623 179.624 130.705 179.624H126.737V184.584H130.769ZM147.831 174.12C148.471 173.139 149.271 172.371 150.231 171.816C151.191 171.24 152.258 170.952 153.431 170.952V176.744H151.927C150.562 176.744 149.538 177.043 148.855 177.64C148.172 178.216 147.831 179.24 147.831 180.712V189H142.359V171.144H147.831V174.12ZM158.799 169.288C157.839 169.288 157.049 169.011 156.431 168.456C155.833 167.88 155.535 167.176 155.535 166.344C155.535 165.491 155.833 164.787 156.431 164.232C157.049 163.656 157.839 163.368 158.799 163.368C159.737 163.368 160.505 163.656 161.103 164.232C161.721 164.787 162.031 165.491 162.031 166.344C162.031 167.176 161.721 167.88 161.103 168.456C160.505 169.011 159.737 169.288 158.799 169.288ZM161.519 171.144V189H156.047V171.144H161.519ZM164.396 180.04C164.396 178.205 164.737 176.595 165.42 175.208C166.124 173.821 167.073 172.755 168.268 172.008C169.463 171.261 170.796 170.888 172.268 170.888C173.441 170.888 174.508 171.133 175.468 171.624C176.449 172.115 177.217 172.776 177.772 173.608V165.32H183.244V189H177.772V186.44C177.26 187.293 176.524 187.976 175.564 188.488C174.625 189 173.527 189.256 172.268 189.256C170.796 189.256 169.463 188.883 168.268 188.136C167.073 187.368 166.124 186.291 165.42 184.904C164.737 183.496 164.396 181.875 164.396 180.04ZM177.772 180.072C177.772 178.707 177.388 177.629 176.62 176.84C175.873 176.051 174.956 175.656 173.868 175.656C172.78 175.656 171.852 176.051 171.084 176.84C170.337 177.608 169.964 178.675 169.964 180.04C169.964 181.405 170.337 182.493 171.084 183.304C171.852 184.093 172.78 184.488 173.868 184.488C174.956 184.488 175.873 184.093 176.62 183.304C177.388 182.515 177.772 181.437 177.772 180.072ZM193.987 170.888C195.245 170.888 196.344 171.144 197.283 171.656C198.243 172.168 198.979 172.84 199.491 173.672V171.144H204.963V188.968C204.963 190.611 204.632 192.093 203.971 193.416C203.331 194.76 202.339 195.827 200.995 196.616C199.672 197.405 198.019 197.8 196.035 197.8C193.389 197.8 191.245 197.171 189.603 195.912C187.96 194.675 187.021 192.989 186.787 190.856H192.195C192.365 191.539 192.771 192.072 193.411 192.456C194.051 192.861 194.84 193.064 195.779 193.064C196.909 193.064 197.805 192.733 198.467 192.072C199.149 191.432 199.491 190.397 199.491 188.968V186.44C198.957 187.272 198.221 187.955 197.283 188.488C196.344 189 195.245 189.256 193.987 189.256C192.515 189.256 191.181 188.883 189.987 188.136C188.792 187.368 187.843 186.291 187.139 184.904C186.456 183.496 186.115 181.875 186.115 180.04C186.115 178.205 186.456 176.595 187.139 175.208C187.843 173.821 188.792 172.755 189.987 172.008C191.181 171.261 192.515 170.888 193.987 170.888ZM199.491 180.072C199.491 178.707 199.107 177.629 198.339 176.84C197.592 176.051 196.675 175.656 195.587 175.656C194.499 175.656 193.571 176.051 192.803 176.84C192.056 177.608 191.683 178.675 191.683 180.04C191.683 181.405 192.056 182.493 192.803 183.304C193.571 184.093 194.499 184.488 195.587 184.488C196.675 184.488 197.592 184.093 198.339 183.304C199.107 182.515 199.491 181.437 199.491 180.072ZM225.753 179.784C225.753 180.296 225.722 180.829 225.658 181.384H213.274C213.359 182.493 213.711 183.347 214.33 183.944C214.97 184.52 215.748 184.808 216.666 184.808C218.031 184.808 218.98 184.232 219.514 183.08H225.338C225.039 184.253 224.495 185.309 223.706 186.248C222.938 187.187 221.967 187.923 220.794 188.456C219.62 188.989 218.308 189.256 216.858 189.256C215.108 189.256 213.551 188.883 212.186 188.136C210.82 187.389 209.754 186.323 208.986 184.936C208.218 183.549 207.834 181.928 207.834 180.072C207.834 178.216 208.207 176.595 208.954 175.208C209.722 173.821 210.788 172.755 212.154 172.008C213.519 171.261 215.087 170.888 216.858 170.888C218.586 170.888 220.122 171.251 221.466 171.976C222.81 172.701 223.855 173.736 224.602 175.08C225.37 176.424 225.753 177.992 225.753 179.784ZM220.154 178.344C220.154 177.405 219.834 176.659 219.194 176.104C218.554 175.549 217.754 175.272 216.794 175.272C215.876 175.272 215.098 175.539 214.458 176.072C213.839 176.605 213.455 177.363 213.306 178.344H220.154Z" fill="#4894FE"/>
</svg>
