<svg width="280" height="280" viewBox="0 0 280 280" fill="none" xmlns="http://www.w3.org/2000/svg">
<rect width="280" height="280" rx="32" fill="#4894FE"/>
<rect x="119" y="122" width="40" height="28" fill="#DBE6F6"/>
<rect x="39" y="122" width="40" height="28" fill="white"/>
<rect x="199" y="122" width="40" height="28" fill="white"/>
<rect x="121" y="84" width="16" height="36" rx="8" stroke="#DBE6F6" stroke-width="4"/>
<rect x="-2" y="2" width="16" height="36" rx="8" transform="matrix(-1 0 0 1 155 82)" stroke="#DBE6F6" stroke-width="4"/>
<rect x="39" y="111" width="200" height="11" fill="white"/>
<rect x="41" y="75" width="16" height="45" rx="8" stroke="white" stroke-width="4"/>
<rect x="-2" y="2" width="16" height="45" rx="8" transform="matrix(-1 0 0 1 235 73)" stroke="white" stroke-width="4"/>
<rect x="61" y="60" width="16" height="60" rx="8" stroke="white" stroke-width="4"/>
<rect x="-2" y="2" width="16" height="60" rx="8" transform="matrix(-1 0 0 1 215 58)" stroke="white" stroke-width="4"/>
<rect x="81" y="53" width="16" height="67" rx="8" stroke="white" stroke-width="4"/>
<rect x="-2" y="2" width="16" height="67" rx="8" transform="matrix(-1 0 0 1 195 51)" stroke="white" stroke-width="4"/>
<rect x="101" y="57" width="16" height="63" rx="8" stroke="white" stroke-width="4"/>
<rect x="-2" y="2" width="16" height="63" rx="8" transform="matrix(-1 0 0 1 175 55)" stroke="white" stroke-width="4"/>
<rect x="123" y="122" width="32" height="24" fill="white"/>
<rect x="119" y="111" width="40" height="4" fill="#DBE6F6"/>
<path d="M27.056 203.736C27.056 201.517 27.536 199.544 28.496 197.816C29.456 196.067 30.7893 194.712 32.496 193.752C34.224 192.771 36.176 192.28 38.352 192.28C41.0187 192.28 43.3013 192.984 45.2 194.392C47.0987 195.8 48.368 197.72 49.008 200.152H42.992C42.544 199.213 41.904 198.499 41.072 198.008C40.2613 197.517 39.3333 197.272 38.288 197.272C36.6027 197.272 35.2373 197.859 34.192 199.032C33.1467 200.205 32.624 201.773 32.624 203.736C32.624 205.699 33.1467 207.267 34.192 208.44C35.2373 209.613 36.6027 210.2 38.288 210.2C39.3333 210.2 40.2613 209.955 41.072 209.464C41.904 208.973 42.544 208.259 42.992 207.32H49.008C48.368 209.752 47.0987 211.672 45.2 213.08C43.3013 214.467 41.0187 215.16 38.352 215.16C36.176 215.16 34.224 214.68 32.496 213.72C30.7893 212.739 29.456 211.384 28.496 209.656C27.536 207.928 27.056 205.955 27.056 203.736ZM51.271 206.04C51.271 204.205 51.6123 202.595 52.295 201.208C52.999 199.821 53.9483 198.755 55.143 198.008C56.3377 197.261 57.671 196.888 59.143 196.888C60.4017 196.888 61.5003 197.144 62.439 197.656C63.399 198.168 64.135 198.84 64.647 199.672V197.144H70.119V215H64.647V212.472C64.1137 213.304 63.367 213.976 62.407 214.488C61.4683 215 60.3697 215.256 59.111 215.256C57.6603 215.256 56.3377 214.883 55.143 214.136C53.9483 213.368 52.999 212.291 52.295 210.904C51.6123 209.496 51.271 207.875 51.271 206.04ZM64.647 206.072C64.647 204.707 64.263 203.629 63.495 202.84C62.7483 202.051 61.831 201.656 60.743 201.656C59.655 201.656 58.727 202.051 57.959 202.84C57.2123 203.608 56.839 204.675 56.839 206.04C56.839 207.405 57.2123 208.493 57.959 209.304C58.727 210.093 59.655 210.488 60.743 210.488C61.831 210.488 62.7483 210.093 63.495 209.304C64.263 208.515 64.647 207.437 64.647 206.072ZM79.5498 200.12C80.1898 199.139 80.9898 198.371 81.9498 197.816C82.9098 197.24 83.9764 196.952 85.1498 196.952V202.744H83.6458C82.2804 202.744 81.2564 203.043 80.5738 203.64C79.8911 204.216 79.5498 205.24 79.5498 206.712V215H74.0778V197.144H79.5498V200.12ZM90.5173 195.288C89.5573 195.288 88.7679 195.011 88.1493 194.456C87.5519 193.88 87.2533 193.176 87.2533 192.344C87.2533 191.491 87.5519 190.787 88.1493 190.232C88.7679 189.656 89.5573 189.368 90.5173 189.368C91.4559 189.368 92.2239 189.656 92.8213 190.232C93.4399 190.787 93.7493 191.491 93.7493 192.344C93.7493 193.176 93.4399 193.88 92.8213 194.456C92.2239 195.011 91.4559 195.288 90.5173 195.288ZM93.2373 197.144V215H87.7653V197.144H93.2373ZM108.083 196.952C110.173 196.952 111.837 197.635 113.075 199C114.333 200.344 114.963 202.2 114.963 204.568V215H109.523V205.304C109.523 204.109 109.213 203.181 108.595 202.52C107.976 201.859 107.144 201.528 106.099 201.528C105.053 201.528 104.221 201.859 103.603 202.52C102.984 203.181 102.675 204.109 102.675 205.304V215H97.2028V197.144H102.675V199.512C103.229 198.723 103.976 198.104 104.915 197.656C105.853 197.187 106.909 196.952 108.083 196.952ZM125.549 196.888C126.808 196.888 127.907 197.144 128.845 197.656C129.805 198.168 130.541 198.84 131.053 199.672V197.144H136.525V214.968C136.525 216.611 136.195 218.093 135.533 219.416C134.893 220.76 133.901 221.827 132.557 222.616C131.235 223.405 129.581 223.8 127.597 223.8C124.952 223.8 122.808 223.171 121.165 221.912C119.523 220.675 118.584 218.989 118.349 216.856H123.757C123.928 217.539 124.333 218.072 124.973 218.456C125.613 218.861 126.403 219.064 127.341 219.064C128.472 219.064 129.368 218.733 130.029 218.072C130.712 217.432 131.053 216.397 131.053 214.968V212.44C130.52 213.272 129.784 213.955 128.845 214.488C127.907 215 126.808 215.256 125.549 215.256C124.077 215.256 122.744 214.883 121.549 214.136C120.355 213.368 119.405 212.291 118.701 210.904C118.019 209.496 117.677 207.875 117.677 206.04C117.677 204.205 118.019 202.595 118.701 201.208C119.405 199.821 120.355 198.755 121.549 198.008C122.744 197.261 124.077 196.888 125.549 196.888ZM131.053 206.072C131.053 204.707 130.669 203.629 129.901 202.84C129.155 202.051 128.237 201.656 127.149 201.656C126.061 201.656 125.133 202.051 124.365 202.84C123.619 203.608 123.245 204.675 123.245 206.04C123.245 207.405 123.619 208.493 124.365 209.304C125.133 210.093 126.061 210.488 127.149 210.488C128.237 210.488 129.155 210.093 129.901 209.304C130.669 208.515 131.053 207.437 131.053 206.072ZM160.865 203.48C162.167 203.757 163.212 204.408 164.001 205.432C164.791 206.435 165.185 207.587 165.185 208.888C165.185 210.765 164.524 212.259 163.201 213.368C161.9 214.456 160.076 215 157.729 215H147.265V192.536H157.377C159.66 192.536 161.441 193.059 162.721 194.104C164.023 195.149 164.673 196.568 164.673 198.36C164.673 199.683 164.321 200.781 163.617 201.656C162.935 202.531 162.017 203.139 160.865 203.48ZM152.737 201.624H156.321C157.217 201.624 157.9 201.432 158.369 201.048C158.86 200.643 159.105 200.056 159.105 199.288C159.105 198.52 158.86 197.933 158.369 197.528C157.9 197.123 157.217 196.92 156.321 196.92H152.737V201.624ZM156.769 210.584C157.687 210.584 158.391 210.381 158.881 209.976C159.393 209.549 159.649 208.941 159.649 208.152C159.649 207.363 159.383 206.744 158.849 206.296C158.337 205.848 157.623 205.624 156.705 205.624H152.737V210.584H156.769ZM173.831 200.12C174.471 199.139 175.271 198.371 176.231 197.816C177.191 197.24 178.258 196.952 179.431 196.952V202.744H177.927C176.562 202.744 175.538 203.043 174.855 203.64C174.172 204.216 173.831 205.24 173.831 206.712V215H168.359V197.144H173.831V200.12ZM184.799 195.288C183.839 195.288 183.049 195.011 182.431 194.456C181.833 193.88 181.535 193.176 181.535 192.344C181.535 191.491 181.833 190.787 182.431 190.232C183.049 189.656 183.839 189.368 184.799 189.368C185.737 189.368 186.505 189.656 187.103 190.232C187.721 190.787 188.031 191.491 188.031 192.344C188.031 193.176 187.721 193.88 187.103 194.456C186.505 195.011 185.737 195.288 184.799 195.288ZM187.519 197.144V215H182.047V197.144H187.519ZM190.396 206.04C190.396 204.205 190.737 202.595 191.42 201.208C192.124 199.821 193.073 198.755 194.268 198.008C195.463 197.261 196.796 196.888 198.268 196.888C199.441 196.888 200.508 197.133 201.468 197.624C202.449 198.115 203.217 198.776 203.772 199.608V191.32H209.244V215H203.772V212.44C203.26 213.293 202.524 213.976 201.564 214.488C200.625 215 199.527 215.256 198.268 215.256C196.796 215.256 195.463 214.883 194.268 214.136C193.073 213.368 192.124 212.291 191.42 210.904C190.737 209.496 190.396 207.875 190.396 206.04ZM203.772 206.072C203.772 204.707 203.388 203.629 202.62 202.84C201.873 202.051 200.956 201.656 199.868 201.656C198.78 201.656 197.852 202.051 197.084 202.84C196.337 203.608 195.964 204.675 195.964 206.04C195.964 207.405 196.337 208.493 197.084 209.304C197.852 210.093 198.78 210.488 199.868 210.488C200.956 210.488 201.873 210.093 202.62 209.304C203.388 208.515 203.772 207.437 203.772 206.072ZM219.987 196.888C221.245 196.888 222.344 197.144 223.283 197.656C224.243 198.168 224.979 198.84 225.491 199.672V197.144H230.963V214.968C230.963 216.611 230.632 218.093 229.971 219.416C229.331 220.76 228.339 221.827 226.995 222.616C225.672 223.405 224.019 223.8 222.035 223.8C219.389 223.8 217.245 223.171 215.603 221.912C213.96 220.675 213.021 218.989 212.787 216.856H218.195C218.365 217.539 218.771 218.072 219.411 218.456C220.051 218.861 220.84 219.064 221.779 219.064C222.909 219.064 223.805 218.733 224.467 218.072C225.149 217.432 225.491 216.397 225.491 214.968V212.44C224.957 213.272 224.221 213.955 223.283 214.488C222.344 215 221.245 215.256 219.987 215.256C218.515 215.256 217.181 214.883 215.987 214.136C214.792 213.368 213.843 212.291 213.139 210.904C212.456 209.496 212.115 207.875 212.115 206.04C212.115 204.205 212.456 202.595 213.139 201.208C213.843 199.821 214.792 198.755 215.987 198.008C217.181 197.261 218.515 196.888 219.987 196.888ZM225.491 206.072C225.491 204.707 225.107 203.629 224.339 202.84C223.592 202.051 222.675 201.656 221.587 201.656C220.499 201.656 219.571 202.051 218.803 202.84C218.056 203.608 217.683 204.675 217.683 206.04C217.683 207.405 218.056 208.493 218.803 209.304C219.571 210.093 220.499 210.488 221.587 210.488C222.675 210.488 223.592 210.093 224.339 209.304C225.107 208.515 225.491 207.437 225.491 206.072ZM251.753 205.784C251.753 206.296 251.722 206.829 251.658 207.384H239.274C239.359 208.493 239.711 209.347 240.33 209.944C240.97 210.52 241.748 210.808 242.666 210.808C244.031 210.808 244.98 210.232 245.514 209.08H251.338C251.039 210.253 250.495 211.309 249.706 212.248C248.938 213.187 247.967 213.923 246.794 214.456C245.62 214.989 244.308 215.256 242.858 215.256C241.108 215.256 239.551 214.883 238.186 214.136C236.82 213.389 235.754 212.323 234.986 210.936C234.218 209.549 233.834 207.928 233.834 206.072C233.834 204.216 234.207 202.595 234.954 201.208C235.722 199.821 236.788 198.755 238.154 198.008C239.519 197.261 241.087 196.888 242.858 196.888C244.586 196.888 246.122 197.251 247.466 197.976C248.81 198.701 249.855 199.736 250.602 201.08C251.37 202.424 251.753 203.992 251.753 205.784ZM246.154 204.344C246.154 203.405 245.834 202.659 245.194 202.104C244.554 201.549 243.754 201.272 242.794 201.272C241.876 201.272 241.098 201.539 240.458 202.072C239.839 202.605 239.455 203.363 239.306 204.344H246.154Z" fill="white"/>
</svg>
