<svg width="264" height="194" viewBox="0 0 264 194" fill="none" xmlns="http://www.w3.org/2000/svg">
<path d="M73.4857 82.9465V97.4003C73.4857 125.574 96.3251 148.413 124.499 148.413H139.501C167.675 148.413 190.514 125.574 190.514 97.4003V82.9465" stroke="#BDBDBD" stroke-width="8.5022" stroke-linecap="round"/>
<rect x="120.114" y="114.405" width="23.7714" height="68.8678" fill="#747474"/>
<path d="M104.572 188.374L104.572 184.973C104.572 184.034 105.333 183.272 106.272 183.272L156.814 183.272C157.753 183.272 158.514 184.034 158.514 184.973L158.514 188.374L104.572 188.374Z" fill="#BDBDBD"/>
<rect x="93.5999" y="193.475" width="5.10132" height="75.8857" rx="1.70044" transform="rotate(-90 93.5999 193.475)" fill="white"/>
<rect x="96.3429" y="0.475098" width="71.3143" height="113.93" rx="33.1586" fill="#747474"/>
<path d="M87.2001 81.594C87.2001 77.1757 90.7818 73.594 95.2001 73.594H168.8C173.218 73.594 176.8 77.1757 176.8 81.594V96.5499C176.8 119.089 158.529 137.361 135.989 137.361H128.011C105.472 137.361 87.2001 119.089 87.2001 96.5499V81.594Z" fill="#BDBDBD"/>
<path d="M96.3429 31.9332H115.735C117.144 31.9332 118.286 33.0752 118.286 34.4839C118.286 35.8926 117.144 37.0345 115.735 37.0345H96.3429V31.9332Z" fill="#F2F2F2"/>
<path d="M167.657 31.9332H148.265C146.856 31.9332 145.714 33.0752 145.714 34.4839C145.714 35.8926 146.856 37.0345 148.265 37.0345H167.657V31.9332Z" fill="#F2F2F2"/>
<path d="M96.3429 45.5367H115.735C117.144 45.5367 118.286 46.6787 118.286 48.0874C118.286 49.4961 117.144 50.6381 115.735 50.6381H96.3429V45.5367Z" fill="#F2F2F2"/>
<path d="M167.657 45.5367H148.265C146.856 45.5367 145.714 46.6787 145.714 48.0874C145.714 49.4961 146.856 50.6381 148.265 50.6381H167.657V45.5367Z" fill="#F2F2F2"/>
<path d="M96.3429 60.8407H115.735C117.144 60.8407 118.286 61.9827 118.286 63.3914C118.286 64.8 117.144 65.942 115.735 65.942H96.3429V60.8407Z" fill="#F2F2F2"/>
<path d="M167.657 60.8407H148.265C146.856 60.8407 145.714 61.9827 145.714 63.3914C145.714 64.8 146.856 65.942 148.265 65.942H167.657V60.8407Z" fill="#F2F2F2"/>
<rect x="176.8" y="86.3474" width="9.14285" height="8.5022" fill="#747474"/>
<rect x="78.0573" y="86.3474" width="9.14285" height="8.5022" fill="#747474"/>
<path d="M190.514 59.2789L202.235 44.5672L212.281 71.4686L227.543 25.1316L239.429 90.1734L249.117 47.5096L260 59.2789" stroke="#4894FE" stroke-width="6.80176" stroke-linecap="round" stroke-linejoin="round"/>
<path d="M73.4857 59.2789L61.7652 44.5672L51.7191 71.4686L36.4572 25.1316L24.5714 90.1734L14.8833 47.5096L4.00002 59.2789" stroke="#4894FE" stroke-width="6.80176" stroke-linecap="round" stroke-linejoin="round"/>
</svg>
