<svg width="284" height="269" viewBox="0 0 284 269" fill="none" xmlns="http://www.w3.org/2000/svg">
<path d="M269.281 202.953C269.281 202.047 268.844 201.312 267.969 200.75C267.125 200.156 265.672 199.594 263.609 199.062L264.406 197C265.188 197.094 266.078 197.219 267.078 197.375C268.109 197.531 269.109 197.703 270.078 197.891C271.078 198.078 272.016 198.25 272.891 198.406C273.797 198.562 274.531 198.688 275.094 198.781C275.031 199.062 274.969 199.438 274.906 199.906C274.844 200.375 274.781 200.844 274.719 201.312C274.688 201.781 274.656 202.203 274.625 202.578C274.594 202.922 274.578 203.109 274.578 203.141V215.703C275.266 215.641 276.016 215.578 276.828 215.516C277.672 215.422 278.516 215.328 279.359 215.234C280.203 215.141 281.016 215.047 281.797 214.953C282.578 214.828 283.281 214.703 283.906 214.578L283.344 218.938C282.844 218.906 282.234 218.891 281.516 218.891C280.828 218.891 280.078 218.891 279.266 218.891C278.484 218.891 277.672 218.891 276.828 218.891C276.016 218.891 275.266 218.891 274.578 218.891V228.875C274.578 229.844 274.562 230.969 274.531 232.25C274.5 233.5 274.453 234.766 274.391 236.047C274.328 237.328 274.25 238.547 274.156 239.703C274.062 240.859 273.969 241.781 273.875 242.469L269.75 243.031C269.688 242.531 269.625 241.844 269.562 240.969C269.531 240.125 269.484 239.203 269.422 238.203C269.391 237.203 269.359 236.188 269.328 235.156C269.297 234.125 269.281 233.156 269.281 232.25V223.672C267.844 224.234 266.234 224.812 264.453 225.406C262.703 225.969 260.938 226.516 259.156 227.047C257.375 227.578 255.641 228.047 253.953 228.453C252.297 228.828 250.828 229.109 249.547 229.297C247.766 229.578 246.484 229.375 245.703 228.688C244.922 227.969 244.531 226.844 244.531 225.312V211.719C244.531 211.188 244.484 210.734 244.391 210.359C244.297 209.953 244.094 209.609 243.781 209.328C243.5 209.016 243.078 208.75 242.516 208.531C241.984 208.281 241.281 208.031 240.406 207.781L241.203 205.672C243.016 205.953 244.969 206.141 247.062 206.234C249.156 206.297 251.25 206.297 253.344 206.234C255.469 206.141 257.516 206 259.484 205.812C261.453 205.594 263.219 205.344 264.781 205.062L264.031 209.234C261.125 209.109 258.469 209.062 256.062 209.094C253.688 209.125 251.594 209.219 249.781 209.375V224.375C249.781 224.812 249.828 225.125 249.922 225.312C250.016 225.469 250.172 225.547 250.391 225.547C251.328 225.484 252.562 225.312 254.094 225.031C255.656 224.719 257.312 224.375 259.062 224C260.812 223.594 262.578 223.156 264.359 222.688C266.172 222.188 267.812 221.719 269.281 221.281V202.953Z" fill="white"/>
<path d="M223.766 202.953C223.766 202.047 223.328 201.312 222.453 200.75C221.609 200.156 220.156 199.594 218.094 199.062L218.891 197C219.672 197.094 220.562 197.219 221.562 197.375C222.594 197.531 223.594 197.703 224.562 197.891C225.562 198.078 226.5 198.25 227.375 198.406C228.281 198.562 229.016 198.688 229.578 198.781C229.516 199.062 229.453 199.438 229.391 199.906C229.328 200.375 229.266 200.844 229.203 201.312C229.172 201.781 229.141 202.203 229.109 202.578C229.078 202.922 229.062 203.109 229.062 203.141V215.891C229.75 215.797 230.5 215.719 231.312 215.656C232.156 215.562 232.984 215.469 233.797 215.375C234.641 215.25 235.453 215.141 236.234 215.047C237.016 214.922 237.719 214.797 238.344 214.672L237.781 219.031C237.312 219 236.719 218.984 236 218.984C235.312 218.984 234.562 218.984 233.75 218.984C232.969 218.984 232.156 218.984 231.312 218.984C230.5 218.984 229.75 218.984 229.062 218.984V228.875C229.062 229.844 229.047 230.969 229.016 232.25C228.984 233.5 228.938 234.766 228.875 236.047C228.812 237.328 228.734 238.547 228.641 239.703C228.547 240.859 228.453 241.781 228.359 242.469L224.234 243.031C224.172 242.531 224.109 241.844 224.047 240.969C224.016 240.125 223.969 239.203 223.906 238.203C223.875 237.203 223.844 236.188 223.812 235.156C223.781 234.125 223.766 233.156 223.766 232.25V222.922C222.359 223.453 220.812 224.016 219.125 224.609C217.469 225.172 215.766 225.719 214.016 226.25C212.297 226.75 210.609 227.203 208.953 227.609C207.297 228.016 205.781 228.312 204.406 228.5C202.594 228.781 201.281 228.562 200.469 227.844C199.688 227.125 199.297 226.016 199.297 224.516V210.266C199.297 209.797 199.234 209.406 199.109 209.094C199.016 208.781 198.797 208.516 198.453 208.297C198.141 208.047 197.672 207.828 197.047 207.641C196.453 207.453 195.641 207.266 194.609 207.078L195.359 205.016C196.109 205.047 196.922 205.109 197.797 205.203C198.703 205.266 199.594 205.359 200.469 205.484C201.375 205.578 202.234 205.688 203.047 205.812C203.859 205.938 204.578 206.047 205.203 206.141C205.141 206.422 205.078 206.797 205.016 207.266C204.953 207.703 204.891 208.156 204.828 208.625C204.797 209.062 204.766 209.453 204.734 209.797C204.703 210.141 204.688 210.344 204.688 210.406V223.531C204.688 224 204.703 224.328 204.734 224.516C204.797 224.703 204.906 224.781 205.062 224.75C205.969 224.688 207.172 224.516 208.672 224.234C210.203 223.953 211.844 223.625 213.594 223.25C215.344 222.844 217.109 222.406 218.891 221.938C220.672 221.438 222.297 220.953 223.766 220.484V202.953Z" fill="white"/>
<path d="M183.734 228.875C183.734 229.812 183.703 230.922 183.641 232.203C183.609 233.484 183.562 234.766 183.5 236.047C183.438 237.328 183.359 238.547 183.266 239.703C183.172 240.859 183.078 241.781 182.984 242.469L178.859 243.031C178.797 242.531 178.734 241.844 178.672 240.969C178.641 240.125 178.594 239.203 178.531 238.203C178.5 237.203 178.469 236.188 178.438 235.156C178.438 234.125 178.438 233.156 178.438 232.25V202.953C178.438 202.047 178 201.312 177.125 200.75C176.281 200.156 174.828 199.594 172.766 199.062L173.562 197C174.344 197.094 175.234 197.219 176.234 197.375C177.266 197.531 178.266 197.703 179.234 197.891C180.234 198.078 181.172 198.25 182.047 198.406C182.953 198.562 183.688 198.688 184.25 198.781C184.188 199.062 184.125 199.438 184.062 199.906C184 200.375 183.938 200.844 183.875 201.312C183.844 201.781 183.812 202.203 183.781 202.578C183.75 202.922 183.734 203.109 183.734 203.141V217.297C184.422 217.234 185.172 217.172 185.984 217.109C186.828 217.016 187.656 216.922 188.469 216.828C189.281 216.734 190.062 216.641 190.812 216.547C191.562 216.453 192.234 216.344 192.828 216.219L192.453 220.625C191.953 220.594 191.344 220.578 190.625 220.578C189.938 220.547 189.203 220.531 188.422 220.531C187.641 220.531 186.844 220.531 186.031 220.531C185.219 220.531 184.453 220.531 183.734 220.531V228.875ZM173.516 206.609C172.578 209.328 171.344 211.953 169.812 214.484C168.312 216.984 166.562 219.344 164.562 221.562C162.594 223.75 160.406 225.781 158 227.656C155.625 229.5 153.109 231.141 150.453 232.578L149 230.844C151.188 229.531 153.234 227.984 155.141 226.203C157.047 224.391 158.75 222.5 160.25 220.531C161.781 218.531 163.078 216.516 164.141 214.484C165.234 212.453 166.047 210.547 166.578 208.766C166.109 208.766 165.562 208.781 164.938 208.812C164.312 208.812 163.656 208.828 162.969 208.859C162.312 208.891 161.672 208.922 161.047 208.953C160.422 208.953 159.891 208.953 159.453 208.953C159.109 208.953 158.641 208.984 158.047 209.047C157.484 209.078 156.859 209.141 156.172 209.234C155.516 209.297 154.844 209.375 154.156 209.469C153.469 209.562 152.875 209.656 152.375 209.75L149.516 205.391C149.922 205.453 150.469 205.531 151.156 205.625C151.844 205.688 152.562 205.766 153.312 205.859C154.094 205.922 154.859 205.984 155.609 206.047C156.359 206.109 157 206.141 157.531 206.141C158.656 206.141 159.859 206.109 161.141 206.047C162.422 205.984 163.688 205.906 164.938 205.812C166.219 205.719 167.438 205.594 168.594 205.438C169.781 205.281 170.828 205.109 171.734 204.922L173.516 206.609Z" fill="white"/>
<path d="M102.375 252.406C101.75 249.312 99.0625 247.094 95.625 247.094C91.375 247.094 87.9688 250.438 87.9688 256.625C87.9688 262.812 91.375 266.156 95.625 266.156C99.0625 266.156 101.75 263.938 102.375 260.844H104.625C103.875 265.062 100.406 268.25 95.625 268.25C89.875 268.25 85.7812 263.719 85.7812 256.625C85.7812 249.531 89.875 245 95.625 245C100.406 245 103.844 248.125 104.625 252.406H102.375Z" fill="white"/>
<path d="M67.125 267.938V245.312H74.8438C79.3125 245.312 81.5312 247.844 81.5312 251.25C81.5312 254.062 79.9375 255.625 77.9062 256.156V256.344C80.125 256.5 82.4375 258.531 82.4375 262C82.4375 265.406 80.1875 267.938 75.25 267.938H67.125ZM75.2188 265.938C78.6875 265.938 80.2812 264.25 80.2812 261.969C80.2812 259.438 78.3125 257.406 75.3125 257.406H69.3438V265.938H75.2188ZM74.9688 255.469C77.5938 255.469 79.4062 253.719 79.4062 251.25C79.4062 248.938 77.875 247.312 74.8125 247.312H69.3438V255.469H74.9688Z" fill="white"/>
<path d="M47.3438 267.938H45L53.2188 245.312H55.625L63.8438 267.938H61.5L59.125 261.219H49.7188L47.3438 267.938ZM50.4375 259.25H58.4375L54.5 248.188H54.3438L50.4375 259.25Z" fill="white"/>
<path d="M0 15.8661C0 10.1448 4.638 5.50684 10.3593 5.50684H204.253C209.974 5.50684 214.612 10.1448 214.612 15.8661V32.1742H0V15.8661Z" fill="#F2F2F2"/>
<path d="M0 127.661H214.612V143.969C214.612 149.69 209.974 154.328 204.253 154.328H10.3593C4.63801 154.328 0 149.69 0 143.969V127.661Z" fill="#F2F2F2"/>
<rect y="32.1742" width="214.612" height="95.4864" fill="#4C4C4C"/>
<ellipse cx="107.306" cy="80.3475" rx="43.7809" ry="43.8721" fill="#F2F2F2"/>
<ellipse cx="107.306" cy="80.3474" rx="35.1964" ry="35.2697" fill="#747474"/>
<ellipse cx="107.306" cy="80.3474" rx="15.4521" ry="15.4843" fill="#4C4C4C"/>
<ellipse cx="17.1689" cy="19.2706" rx="5.1507" ry="5.16143" fill="#F99F9F"/>
<rect x="164.822" y="12.3887" width="30.0457" height="13.7638" rx="0.863272" fill="#E1E1E1"/>
<rect x="165.681" y="13.2489" width="13.7352" height="12.0433" rx="0.863272" fill="white"/>
<rect x="180.274" y="13.2489" width="13.7352" height="12.0433" rx="0.863272" fill="white"/>
<path d="M25.7535 5.50673C25.7535 4.55654 26.5238 3.78625 27.474 3.78625H49.7865C50.7367 3.78625 51.507 4.55654 51.507 5.50673H25.7535Z" fill="#E1E1E1"/>
<path d="M28.3288 2.41125C28.3288 1.07949 29.4084 -0.00012207 30.7402 -0.00012207H38.6302H46.5202C47.852 -0.00012207 48.9316 1.07949 48.9316 2.41125V3.78628H28.3288V2.41125Z" fill="#747474"/>
</svg>
