<svg width="55" height="55" viewBox="0 0 55 55" fill="none" xmlns="http://www.w3.org/2000/svg">
<path fill-rule="evenodd" clip-rule="evenodd" d="M27.5 4.58325C30.5095 4.58324 33.4895 5.17598 36.2699 6.32765C39.0502 7.47931 41.5766 9.16733 43.7046 11.2953C45.8326 13.4233 47.5206 15.9497 48.6723 18.73C49.824 21.5104 50.4167 24.4904 50.4167 27.4999C50.4167 40.1564 40.1566 50.4166 27.5 50.4166C14.8436 50.4166 4.58337 40.1564 4.58337 27.4999C4.58337 14.8434 14.8436 4.58325 27.5 4.58325ZM29.7917 29.7916H25.2084C19.5349 29.7916 14.6641 33.2277 12.5632 38.1327C15.8873 42.7939 21.3387 45.8333 27.5 45.8333C33.6613 45.8333 39.1127 42.7939 42.4369 38.1324C40.3361 33.2277 35.4652 29.7916 29.7917 29.7916ZM27.5 11.4583C23.7031 11.4583 20.625 14.5363 20.625 18.3333C20.625 22.1302 23.7031 25.2083 27.5 25.2083C31.2969 25.2083 34.375 22.1302 34.375 18.3333C34.375 14.5363 31.297 11.4583 27.5 11.4583Z" fill="#8696BB"/>
</svg>
