<svg width="32" height="32" viewBox="0 0 32 32" fill="none" xmlns="http://www.w3.org/2000/svg">
<path d="M16 21.3333C18.2091 21.3333 20 19.5424 20 17.3333C20 15.1241 18.2091 13.3333 16 13.3333C13.7909 13.3333 12 15.1241 12 17.3333C12 19.5424 13.7909 21.3333 16 21.3333Z" stroke="black" stroke-width="2"/>
<path d="M13.0373 27.9999H18.9627C23.124 27.9999 25.2053 27.9999 26.7 27.0199C27.3451 26.5975 27.9006 26.052 28.3347 25.4146C29.3333 23.9479 29.3333 21.9039 29.3333 17.8186C29.3333 13.7333 29.3333 11.6893 28.3347 10.2226C27.9006 9.58526 27.3451 9.03975 26.7 8.61727C25.74 7.98661 24.5373 7.76127 22.696 7.68127C21.8173 7.68127 21.0613 7.02794 20.8893 6.18127C20.7579 5.5611 20.4164 5.00532 19.9225 4.60787C19.4286 4.21043 18.8126 3.99568 18.1787 3.99994H13.8213C12.504 3.99994 11.3693 4.91327 11.1107 6.18127C10.9387 7.02794 10.1827 7.68127 9.30401 7.68127C7.46401 7.76127 6.26134 7.98794 5.30001 8.61727C4.65539 9.03989 4.10037 9.58539 3.66667 10.2226C2.66667 11.6893 2.66667 13.7319 2.66667 17.8186C2.66667 21.9053 2.66667 23.9466 3.66534 25.4146C4.09734 26.0493 4.65201 26.5946 5.30001 27.0199C6.79467 27.9999 8.87601 27.9999 13.0373 27.9999Z" stroke="black" stroke-width="2"/>
<path d="M25.3333 13.3333H24" stroke="black" stroke-width="2" stroke-linecap="round"/>
</svg>
