<svg width="32" height="32" viewBox="0 0 32 32" fill="none" xmlns="http://www.w3.org/2000/svg">
<path d="M16 26.6667H28M20 6.66668L24 10.6667M21.8347 4.82935C22.3655 4.29856 23.0854 4.00037 23.836 4.00037C24.5867 4.00037 25.3066 4.29856 25.8373 4.82935C26.3681 5.36013 26.6663 6.08003 26.6663 6.83068C26.6663 7.58133 26.3681 8.30123 25.8373 8.83201L9.82401 24.8467C9.5068 25.1639 9.11471 25.3959 8.68401 25.5213L4.85468 26.6387C4.73995 26.6721 4.61833 26.6741 4.50256 26.6445C4.38678 26.6148 4.28111 26.5546 4.19661 26.4701C4.1121 26.3856 4.05186 26.2799 4.0222 26.1641C3.99254 26.0484 3.99455 25.9267 4.02801 25.812L5.14534 21.9827C5.27097 21.5525 5.50301 21.1608 5.82001 20.844L21.8347 4.82935Z" stroke="black" stroke-width="2.66667" stroke-linecap="round" stroke-linejoin="round"/>
</svg>
