<svg width="20" height="20" viewBox="0 0 20 20" fill="none" xmlns="http://www.w3.org/2000/svg">
<path fill-rule="evenodd" clip-rule="evenodd" d="M10.4941 19.3818L10.4849 19.3834L10.4257 19.4126L10.4091 19.4159L10.3974 19.4126L10.3382 19.3834C10.3293 19.3807 10.3227 19.3821 10.3182 19.3876L10.3149 19.3959L10.3007 19.7526L10.3049 19.7693L10.3132 19.7801L10.3999 19.8418L10.4124 19.8451L10.4224 19.8418L10.5091 19.7801L10.5191 19.7668L10.5224 19.7526L10.5082 19.3968C10.506 19.3879 10.5013 19.3829 10.4941 19.3818ZM10.7149 19.2876L10.7041 19.2893L10.5499 19.3668L10.5416 19.3751L10.5391 19.3843L10.5541 19.7426L10.5582 19.7526L10.5649 19.7584L10.7324 19.8359C10.743 19.8387 10.751 19.8365 10.7566 19.8293L10.7599 19.8176L10.7316 19.3059C10.7288 19.2959 10.7232 19.2898 10.7149 19.2876ZM10.1191 19.2893C10.1154 19.2871 10.111 19.2863 10.1068 19.2873C10.1026 19.2882 10.0989 19.2907 10.0966 19.2943L10.0916 19.3059L10.0632 19.8176C10.0638 19.8276 10.0685 19.8343 10.0774 19.8376L10.0899 19.8359L10.2574 19.7584L10.2657 19.7518L10.2691 19.7426L10.2832 19.3843L10.2807 19.3743L10.2724 19.3659L10.1191 19.2893Z" fill="white"/>
<path fill-rule="evenodd" clip-rule="evenodd" d="M17.9549 4.25922C18.1893 4.49363 18.3209 4.81152 18.3209 5.14297C18.3209 5.47443 18.1893 5.79231 17.9549 6.02672L8.58577 15.3959C8.46196 15.5197 8.31496 15.618 8.15317 15.685C7.99138 15.752 7.81798 15.7865 7.64286 15.7865C7.46774 15.7865 7.29433 15.752 7.13254 15.685C6.97075 15.618 6.82376 15.5197 6.69994 15.3959L2.04494 10.7417C1.92555 10.6264 1.83032 10.4885 1.76481 10.336C1.6993 10.1835 1.66482 10.0194 1.66338 9.85347C1.66194 9.6875 1.69356 9.5229 1.75641 9.36928C1.81926 9.21566 1.91208 9.07609 2.02945 8.95873C2.14681 8.84136 2.28638 8.74855 2.44 8.68569C2.59362 8.62284 2.75822 8.59122 2.92419 8.59266C3.09017 8.5941 3.25419 8.62858 3.4067 8.6941C3.5592 8.75961 3.69713 8.85483 3.81244 8.97422L7.64244 12.8042L16.1866 4.25922C16.3027 4.14306 16.4405 4.05092 16.5922 3.98805C16.7439 3.92518 16.9066 3.89282 17.0708 3.89282C17.235 3.89282 17.3976 3.92518 17.5493 3.98805C17.701 4.05092 17.8389 4.14306 17.9549 4.25922Z" fill="white"/>
</svg>
