<svg width="20" height="21" viewBox="0 0 20 21" fill="none" xmlns="http://www.w3.org/2000/svg">
<path d="M8.33417 9.92522e-08C10.3578 -0.000312064 12.3124 0.735735 13.8332 2.07077C15.3539 3.4058 16.337 5.24859 16.5988 7.25521L18.9425 10.9417C19.0967 11.1844 19.0654 11.5458 18.7081 11.7L16.6675 12.5729V15.625C16.6675 16.1775 16.448 16.7074 16.0573 17.0981C15.6666 17.4888 15.1367 17.7083 14.5842 17.7083H12.5019L12.5008 20.8333H3.12584V16.9854C3.12584 15.7562 2.67167 14.5927 1.82897 13.5427C0.847406 12.3171 0.232069 10.8392 0.0538543 9.27916C-0.124361 7.71913 0.141799 6.14048 0.821665 4.72512C1.50153 3.30976 2.56744 2.11527 3.89658 1.27929C5.22571 0.443303 6.76399 -0.00015747 8.33417 9.92522e-08ZM7.78209 6.00312C7.43835 5.671 6.97792 5.48716 6.49995 5.49122C6.02199 5.49528 5.56474 5.6869 5.22669 6.02481C4.88863 6.36273 4.69683 6.8199 4.69258 7.29786C4.68833 7.77582 4.87198 8.23634 5.20397 8.58021L8.33417 11.7115L11.4644 8.58021C11.6385 8.41201 11.7773 8.21084 11.8728 7.98841C11.9683 7.76599 12.0185 7.52678 12.0206 7.28473C12.0226 7.04269 11.9764 6.80266 11.8847 6.57865C11.793 6.35463 11.6576 6.15113 11.4864 5.98001C11.3153 5.80888 11.1117 5.67357 10.8876 5.58195C10.6636 5.49034 10.4236 5.44427 10.1815 5.44642C9.93946 5.44857 9.70027 5.49891 9.47789 5.59449C9.2555 5.69007 9.05438 5.82898 8.88626 6.00312L8.33417 6.55521L7.78209 6.00312Z" fill="#4894FE"/>
</svg>
