<svg width="33" height="33" viewBox="0 0 33 33" fill="none" xmlns="http://www.w3.org/2000/svg">
<g clip-path="url(#clip0_1126_1194)">
<path d="M4.09097 21.2088L20.5363 4.76758L28.2284 12.4617L11.7826 28.903L4.09097 21.2088Z" fill="#FFCE31"/>
<path d="M31.6078 2.37187L30.6281 1.39219C28.7719 -0.464063 25.7813 -0.464063 23.8734 1.39219L20.5219 4.74375L28.2563 12.4781L31.6078 9.12656C33.4641 7.27031 33.4641 4.22812 31.6078 2.37187Z" fill="#ED4C5C"/>
<path d="M18.4501 6.8629L20.5642 4.7478L28.2573 12.4409L26.1432 14.5555L18.4501 6.8629Z" fill="#93A2AA"/>
<path d="M19.2524 7.66487L21.3665 5.55029L27.4194 11.6027L25.3043 13.7168L19.2524 7.66487Z" fill="#C7D3D8"/>
<path d="M4.07344 21.1921L0.721878 29.9578L3.04219 32.2781L11.8078 28.9265L4.07344 21.1921Z" fill="#FED0AC"/>
<path d="M0.154686 31.5047C-0.309376 32.7422 0.309374 33.3094 1.54687 32.8454L5.775 31.2469L1.80469 27.2766L0.154686 31.5047Z" fill="#333333"/>
<path d="M4.06828 21.2308L18.4336 6.86548L20.9859 9.41782L6.62063 23.7831L4.06828 21.2308Z" fill="#FFDF85"/>
<path d="M9.23175 26.3702L23.5971 12.0049L26.1494 14.5572L11.7841 28.9225L9.23175 26.3702Z" fill="#FF8736"/>
</g>
<defs>
<clipPath id="clip0_1126_1194">
<rect width="33" height="33" fill="white"/>
</clipPath>
</defs>
</svg>
