<svg width="40" height="40" viewBox="0 0 40 40" fill="none" xmlns="http://www.w3.org/2000/svg">
<path d="M33.1312 38.025H11.3062C10.7875 38.025 10.9125 37.6031 10.9125 37.0843V4.39058C10.9125 3.87183 11.3344 3.44995 11.8531 3.44995H33.5281C34.3781 3.44995 35.0687 4.14058 35.0687 4.99058V36.1656C35.0687 37.3718 34.4969 38.025 33.1312 38.025Z" fill="#D68B52"/>
<path d="M5.79063 35.9813C5.79063 36.5876 6.75 37.097 7.35625 37.097L32.4781 37.0813C33.4094 37.0813 33.8969 36.5876 33.8969 35.9813L33.8188 29.3188H5.79063V35.9813Z" fill="#94C6D6"/>
<path d="M31.7094 33.0875C31.7094 33.0875 31.0438 34.9156 31.7188 35.8313C32.5031 36.8938 33.8719 36.6375 33.8719 36.1406V5.1375C33.8719 4.93125 33.6813 4.78125 33.4813 4.825C33.0469 4.91875 32.2656 4.92188 31.2281 4.23438L31.7094 33.0875Z" fill="#F5F5F5"/>
<path d="M29.425 34.6406H7.3875V2.01562H29.9656C30.675 2.01562 31.175 2.20625 31.4094 2.52187C31.7156 2.93125 31.8781 3.55313 31.8781 4.23438V32.1875C31.8781 32.8381 31.6197 33.4621 31.1596 33.9221C30.6996 34.3822 30.0756 34.6406 29.425 34.6406Z" fill="#D68B52"/>
<path d="M28.7531 33.6813H7.98125C7.11875 33.6813 6.42188 32.9813 6.42188 32.1219V3.57817C6.42188 2.71567 7.12188 2.0188 7.98125 2.0188H28.7531C29.9469 2.0188 30.9156 2.70005 30.9156 4.1813V31.5219C30.9125 32.7125 29.9469 33.6813 28.7531 33.6813Z" fill="#ECB354"/>
<path d="M10.7594 34.2968L10.7437 2.01869H7.24375C7.24375 2.01869 6.52187 1.89369 6.04062 2.01869C5.16875 2.24682 4.92812 2.88119 4.92812 3.91557V33.4187C4.92812 35.5124 5.05625 36.4187 5.69062 37.0812C5.65312 36.5999 5.9625 34.9468 6.21562 34.4937C6.44062 34.0937 10.7594 34.2968 10.7594 34.2968Z" fill="#BA793E"/>
<path d="M7.24375 2.01562V34.6406" stroke="#6D4C41" stroke-width="0.5" stroke-miterlimit="10"/>
<path d="M10.7437 34.1687L7.2125 34.2375C6.03437 34.2375 5.63125 35.5 5.84062 36.3343C6.10312 37.3875 7.19062 37.5593 7.45937 37.5593H11.4125" stroke="#6D4C41" stroke-width="0.75" stroke-miterlimit="10"/>
<path d="M26.8281 9.90632C26.8281 9.63757 26.6219 9.41569 26.3531 9.39382C25.1719 9.30007 24.05 8.86257 23.0563 8.20007C22.3988 7.7637 21.6266 7.53206 20.8375 7.53444C20.0156 7.53444 19.2531 7.78132 18.6188 8.20007C17.625 8.85944 16.5 9.29694 15.3219 9.39069C15.0531 9.41257 14.8469 9.63444 14.8469 9.90319V13.0157C14.8469 13.2844 15.0531 13.5063 15.3219 13.5282C16.5031 13.6219 17.625 14.0594 18.6188 14.7188C19.2531 15.1407 20.0156 15.3844 20.8375 15.3844C21.6594 15.3844 22.4219 15.1376 23.0563 14.7188C24.05 14.0594 25.175 13.6219 26.3531 13.5251C26.6219 13.5032 26.8281 13.2813 26.8281 13.0126V9.90632Z" fill="#FFFDE7"/>
<path d="M26.8281 12.6563C26.8219 12.6782 26.6594 12.8813 25.7937 12.9688C25.4312 13.0063 25.0812 13.1125 24.7344 13.2219C24.0187 13.45 23.3375 13.7875 22.7125 14.2032C22.1594 14.5719 21.5094 14.7657 20.8375 14.7657C20.1656 14.7657 19.5312 14.5469 18.9625 14.2032C17.3375 13.2188 16.4437 13.0344 15.8125 12.9594C15.0031 12.8625 14.8406 12.6438 14.8406 12.6438C14.8406 12.6438 14.8437 12.8813 14.8437 13.0219C14.8437 13.2907 15.05 13.5125 15.3187 13.5344C16.5 13.6282 17.6219 14.0657 18.6156 14.725C19.25 15.1469 20.0125 15.3907 20.8344 15.3907C21.6562 15.3907 22.4187 15.1438 23.0531 14.725C24.0469 14.0657 25.1719 13.6282 26.35 13.5313C26.6187 13.5094 26.825 13.2875 26.825 13.0188C26.8281 12.9157 26.8281 12.6563 26.8281 12.6563Z" fill="#D68B52"/>
<path d="M14.8438 10.2564C14.8438 10.2564 15.1813 10.0345 15.8781 9.95637C16.2375 9.91574 16.5906 9.81262 16.9375 9.70324C17.6531 9.47512 18.3344 9.13762 18.9594 8.72199C19.5125 8.35324 20.1625 8.15949 20.8344 8.15949C21.5062 8.15949 22.1531 8.35324 22.7094 8.72199C23.35 9.14699 24.3156 9.77199 25.8594 9.96574C26.0031 9.98449 26.5875 9.93762 26.8281 10.3532C26.8281 10.3532 26.825 10.0439 26.825 9.90637C26.825 9.63762 26.6187 9.41574 26.35 9.39387C25.1687 9.30012 24.0469 8.86262 23.0531 8.20324C22.3956 7.76687 21.6235 7.53524 20.8344 7.53762C20.0125 7.53762 19.25 7.78449 18.6156 8.20324C17.6219 8.86262 16.4969 9.30012 15.3188 9.39699C15.05 9.41887 14.8438 9.64074 14.8438 9.90949V10.2564Z" fill="#FFECB3"/>
</svg>
