<svg width="30" height="30" viewBox="0 0 30 30" fill="none" xmlns="http://www.w3.org/2000/svg">
<path fill-rule="evenodd" clip-rule="evenodd" d="M20 8.4375C19.5856 8.4375 19.1882 8.60212 18.8951 8.89515C18.6021 9.18817 18.4375 9.5856 18.4375 10C18.4375 10.4144 18.6021 10.8118 18.8951 11.1049C19.1882 11.3979 19.5856 11.5625 20 11.5625C20.4144 11.5625 20.8118 11.3979 21.1049 11.1049C21.3979 10.8118 21.5625 10.4144 21.5625 10C21.5625 9.5856 21.3979 9.18817 21.1049 8.89515C20.8118 8.60212 20.4144 8.4375 20 8.4375ZM16.5625 10C16.5625 9.08832 16.9247 8.21398 17.5693 7.56932C18.214 6.92466 19.0883 6.5625 20 6.5625C20.9117 6.5625 21.786 6.92466 22.4307 7.56932C23.0753 8.21398 23.4375 9.08832 23.4375 10C23.4375 10.9117 23.0753 11.786 22.4307 12.4307C21.786 13.0753 20.9117 13.4375 20 13.4375C19.0883 13.4375 18.214 13.0753 17.5693 12.4307C16.9247 11.786 16.5625 10.9117 16.5625 10Z" fill="black"/>
<path fill-rule="evenodd" clip-rule="evenodd" d="M14.9288 1.5625H15.0712C17.9575 1.5625 20.2188 1.5625 21.9837 1.8C23.7887 2.0425 25.2138 2.55 26.3325 3.6675C27.4513 4.78625 27.9575 6.21125 28.2 8.0175C28.4375 9.78125 28.4375 12.0425 28.4375 14.9288V15.0712C28.4375 17.9575 28.4375 20.2188 28.2 21.9837C27.9575 23.7887 27.45 25.2138 26.3325 26.3325C25.2138 27.4513 23.7887 27.9575 21.9825 28.2C20.2188 28.4375 17.9575 28.4375 15.0712 28.4375H14.9288C12.0425 28.4375 9.78125 28.4375 8.01625 28.2C6.21125 27.9575 4.78625 27.45 3.6675 26.3325C2.54875 25.2138 2.0425 23.7887 1.8 21.9825C1.5625 20.2188 1.5625 17.9575 1.5625 15.0712V14.9288C1.5625 12.0425 1.5625 9.78125 1.8 8.01625C2.0425 6.21125 2.55 4.78625 3.6675 3.6675C4.78625 2.54875 6.21125 2.0425 8.0175 1.8C9.78125 1.5625 12.0425 1.5625 14.9288 1.5625ZM4.99375 25.0062C4.28125 24.2937 3.8725 23.3312 3.6575 21.7325C3.46625 20.3062 3.44125 18.4862 3.4375 16.05L5.30625 14.415C5.67612 14.0911 6.15529 13.92 6.64665 13.9362C7.13802 13.9525 7.60483 14.1549 7.9525 14.5025L13.315 19.865C13.8871 20.4374 14.6428 20.7895 15.449 20.8595C16.2553 20.9295 17.0603 20.7128 17.7225 20.2475L18.095 19.985C18.6159 19.6188 19.2455 19.4402 19.8811 19.4783C20.5166 19.5165 21.1204 19.7691 21.5938 20.195L25.6225 23.8225C25.6667 23.8617 25.7129 23.8963 25.7612 23.9263C25.5753 24.328 25.3197 24.6936 25.0062 25.0062C24.2937 25.7187 23.3312 26.1275 21.7325 26.3425C20.1075 26.56 17.9725 26.5625 15 26.5625C12.0275 26.5625 9.8925 26.56 8.2675 26.3425C6.66875 26.1275 5.70625 25.7175 4.99375 25.0062ZM8.2675 3.6575C6.66875 3.8725 5.705 4.2825 4.9925 4.99375C4.28125 5.70625 3.8725 6.66875 3.6575 8.2675C3.47625 9.6175 3.445 11.3175 3.43875 13.5588L4.0725 13.0037C4.80046 12.3669 5.74326 12.0306 6.70993 12.0628C7.67659 12.0951 8.59487 12.4935 9.27875 13.1775L14.6413 18.54C14.9014 18.7997 15.2448 18.9594 15.6111 18.991C15.9773 19.0225 16.343 18.9239 16.6437 18.7125L17.0162 18.45C17.8845 17.8399 18.934 17.5424 19.9933 17.6062C21.0525 17.67 22.0588 18.0913 22.8475 18.8013L26.315 21.9225L26.3425 21.7325C26.56 20.1075 26.5625 17.9725 26.5625 15C26.5625 12.0275 26.56 9.8925 26.3425 8.2675C26.1275 6.66875 25.7175 5.705 25.0062 4.9925C24.2937 4.28125 23.3312 3.8725 21.7325 3.6575C20.1075 3.44 17.9725 3.4375 15 3.4375C12.0275 3.4375 9.8925 3.44 8.2675 3.6575Z" fill="black"/>
</svg>
