<svg width="25" height="25" viewBox="0 0 25 25" fill="none" xmlns="http://www.w3.org/2000/svg">
<path d="M17.7793 2C18.5702 2 19.3121 2.16311 20.005 2.48934C20.6979 2.81556 21.2998 3.26606 21.8107 3.84084C22.3217 4.41561 22.7276 5.08748 23.0286 5.85644C23.3295 6.62539 23.48 7.44872 23.48 8.32642C23.48 8.77692 23.438 9.22354 23.354 9.66627C23.27 10.109 23.144 10.5362 22.9761 10.9479H18.1152L16.0995 8.61769L12.74 12.346L8.03666 7.12638L4.67713 10.9479H2.50393C2.33595 10.5362 2.20997 10.109 2.12598 9.66627C2.04199 9.22354 2 8.77692 2 8.32642C2 7.44872 2.14698 6.62539 2.44094 5.85644C2.7349 5.08748 3.14084 4.4195 3.65877 3.85249C4.1767 3.28548 4.78211 2.83498 5.47501 2.50099C6.16792 2.167 6.90981 2 7.7007 2C8.4636 2 9.1915 2.15923 9.8844 2.47769C10.5773 2.79614 11.1967 3.25441 11.7426 3.85249L12.74 4.97097L13.7374 3.85249C14.2763 3.25441 14.8922 2.79614 15.5851 2.47769C16.278 2.15923 17.0094 2 17.7793 2ZM16.7714 12.4392H22.1257L21.9787 12.6256C21.9297 12.6877 21.8772 12.7537 21.8212 12.8237L12.74 22.89L3.65877 12.8237C3.60278 12.7615 3.55028 12.6994 3.50129 12.6372C3.4523 12.5751 3.4033 12.5091 3.35431 12.4392H6.02094L8.03666 10.2954L12.74 15.515L16.0995 11.7867L16.7714 12.4392Z" fill="#4894FE"/>
</svg>
