<svg width="15" height="21" viewBox="0 0 15 21" fill="none" xmlns="http://www.w3.org/2000/svg">
<path fill-rule="evenodd" clip-rule="evenodd" d="M7.50002 4.77075C8.12162 4.77075 8.71776 4.52382 9.1573 4.08428C9.59684 3.64474 9.84377 3.0486 9.84377 2.427C9.84377 1.8054 9.59684 1.20926 9.1573 0.76972C8.71776 0.330182 8.12162 0.083252 7.50002 0.083252C6.87842 0.083252 6.28228 0.330182 5.84274 0.76972C5.4032 1.20926 5.15627 1.8054 5.15627 2.427C5.15627 3.0486 5.4032 3.64474 5.84274 4.08428C6.28228 4.52382 6.87842 4.77075 7.50002 4.77075ZM14.75 6.04158C14.8274 6.3068 14.7962 6.59189 14.6634 6.83412C14.5305 7.07635 14.3069 7.2559 14.0417 7.33325C12.8042 7.69367 11.6865 7.96554 10.625 8.14627V19.8749C10.6253 20.1432 10.5221 20.4013 10.3368 20.5954C10.1516 20.7895 9.89857 20.9046 9.63053 20.9167C9.3625 20.9289 9.10012 20.8371 8.89805 20.6606C8.69599 20.4841 8.56982 20.2364 8.54585 19.9692L8.02502 14.24C8.02221 14.2087 8.02082 14.1772 8.02085 14.1458H6.97919C6.97922 14.1772 6.97783 14.2087 6.97502 14.24L6.45419 19.9692C6.43021 20.2364 6.30405 20.4841 6.10198 20.6606C5.89992 20.8371 5.63754 20.9289 5.3695 20.9167C5.10147 20.9046 4.84847 20.7895 4.6632 20.5954C4.47794 20.4013 4.37471 20.1432 4.37502 19.8749V8.127C3.31616 7.94471 2.20262 7.67856 0.971373 7.3369C0.838292 7.30146 0.713559 7.23998 0.604391 7.15602C0.495222 7.07207 0.403786 6.9673 0.335373 6.84777C0.266959 6.72825 0.222925 6.59634 0.20582 6.45969C0.188715 6.32304 0.198877 6.18435 0.235719 6.05165C0.272561 5.91895 0.335351 5.79487 0.420457 5.6866C0.505562 5.57832 0.611294 5.488 0.731534 5.42085C0.851775 5.3537 0.984137 5.31106 1.12096 5.2954C1.25779 5.27974 1.39636 5.29136 1.52866 5.32961C3.92866 5.99523 5.73179 6.32544 7.50471 6.33325C9.27346 6.34106 11.0724 6.02856 13.4584 5.33325C13.7236 5.2559 14.0087 5.28707 14.2509 5.41991C14.4931 5.55274 14.6727 5.77637 14.75 6.04158Z" fill="#4894FE"/>
</svg>
