<svg width="23" height="23" viewBox="0 0 23 23" fill="none" xmlns="http://www.w3.org/2000/svg">
<path d="M0 8.625C0 7.03926 1.28926 5.75 2.875 5.75H2.94687C3.2793 4.11035 4.73027 2.875 6.46875 2.875C7.14258 2.875 7.77148 3.05918 8.30605 3.37812C8.90352 2.22812 10.1119 1.4375 11.5 1.4375C12.8881 1.4375 14.0965 2.22812 14.6939 3.37812C15.2285 3.05918 15.8574 2.875 16.5312 2.875C18.2697 2.875 19.7207 4.11035 20.0531 5.75H20.125C21.7107 5.75 23 7.03926 23 8.625C23 9.15059 22.8607 9.64023 22.6137 10.0625H0.386328C0.139258 9.64023 0 9.15059 0 8.625ZM0 12.7309C0 12.0525 0.552539 11.5 1.23086 11.5H21.7646C22.443 11.5 22.9955 12.0525 22.9955 12.7309C22.9955 15.8979 21.001 18.6021 18.2023 19.6533L18.126 20.3047C18.0361 21.0234 17.4252 21.5625 16.6975 21.5625H6.29805C5.5748 21.5625 4.95938 21.0234 4.86953 20.3047L4.78867 19.6578C1.99453 18.6021 0 15.8979 0 12.7309Z" fill="#4894FE"/>
</svg>
