<svg width="25" height="25" viewBox="0 0 25 25" fill="none" xmlns="http://www.w3.org/2000/svg">
<path d="M6.24996 22.9166C5.67704 22.9166 5.18676 22.7128 4.77913 22.3051C4.37149 21.8975 4.16732 21.4069 4.16663 20.8333V4.16659C4.16663 3.59367 4.37079 3.10339 4.77913 2.69575C5.18746 2.28811 5.67774 2.08395 6.24996 2.08325H18.75C19.3229 2.08325 19.8135 2.28742 20.2218 2.69575C20.6302 3.10409 20.834 3.59436 20.8333 4.16659V20.8333C20.8333 21.4062 20.6295 21.8968 20.2218 22.3051C19.8142 22.7135 19.3236 22.9173 18.75 22.9166H6.24996ZM11.4583 11.4583L14.0625 9.89575L16.6666 11.4583V4.16659H11.4583V11.4583Z" fill="#4894FE"/>
</svg>
