<svg width="70" height="70" viewBox="0 0 70 70" fill="none" xmlns="http://www.w3.org/2000/svg">
<g clip-path="url(#clip0_930_1405)">
<path d="M27.7229 30.8001L41.0778 7.67296C36.9482 6.74985 32.6629 6.77675 28.5452 7.75165C24.4276 8.72655 20.5851 10.624 17.3077 13.3008L27.5549 31.0801L27.7229 30.8001ZM61.7121 26.6003C59.1363 18.4246 52.8928 11.8728 44.9135 8.84892L34.6663 26.6003H61.7121ZM62.44 29.4002H41.4697L42.2817 30.8001L55.6086 53.8993C60.3726 48.7604 63.0136 42.0076 62.9999 35C62.9999 33.0681 62.804 31.2201 62.44 29.4002ZM25.3151 35L14.396 16.1007C11.3964 19.3501 9.21263 23.2663 8.02482 27.526C6.83701 31.7858 6.67925 36.267 7.56456 40.5998H28.5348L25.3151 35ZM8.2925 43.3997C10.8683 51.5754 17.1118 58.1272 25.0911 61.1511L35.3382 43.3997H8.2925ZM39.8459 43.3997L28.9268 62.327C33.0564 63.2502 37.3417 63.2233 41.4593 62.2484C45.577 61.2735 49.4195 59.376 52.6968 56.6992L42.4497 38.9199L39.8459 43.3997Z" fill="#4894FE"/>
<circle cx="35" cy="35" r="33.5" stroke="#4894FE" stroke-width="3"/>
</g>
<defs>
<clipPath id="clip0_930_1405">
<rect width="70" height="70" fill="white"/>
</clipPath>
</defs>
</svg>
