<svg width="20" height="20" viewBox="0 0 20 20" fill="none" xmlns="http://www.w3.org/2000/svg">
<g clip-path="url(#clip0_538_3224)">
<path d="M9.99986 5C10.4556 5 10.8853 4.9349 11.2889 4.80469C11.6926 4.67448 12.0962 4.53125 12.4999 4.375C12.9035 4.21875 13.3039 4.07552 13.701 3.94531C14.0982 3.8151 14.5311 3.75 14.9999 3.75V5C14.7134 5 14.44 5.0293 14.1795 5.08789C13.9191 5.14648 13.6652 5.22461 13.4178 5.32227C13.1704 5.41992 12.9165 5.52083 12.6561 5.625C12.3957 5.72917 12.132 5.83008 11.8651 5.92773C11.5982 6.02539 11.3085 6.10026 10.996 6.15234C10.6835 6.20443 10.3514 6.23698 9.99986 6.25C9.64179 6.25 9.30976 6.2207 9.00377 6.16211C8.69778 6.10352 8.40806 6.02539 8.13463 5.92773C7.86119 5.83008 7.60077 5.72917 7.35338 5.625C7.10598 5.52083 6.85207 5.41992 6.59166 5.32227C6.33124 5.22461 6.07408 5.14974 5.82017 5.09766C5.56627 5.04557 5.29283 5.01302 4.99986 5V3.75C5.44908 3.75 5.87877 3.8151 6.28892 3.94531C6.69908 4.07552 7.10273 4.21875 7.49986 4.375C7.897 4.53125 8.30064 4.67448 8.7108 4.80469C9.12095 4.9349 9.55064 5 9.99986 5ZM19.9999 5.6543C19.9999 6.80664 19.9152 7.97852 19.746 9.16992C19.5767 10.3613 19.3293 11.543 19.0038 12.7148C18.6782 13.8867 18.2681 15.0228 17.7733 16.123C17.2785 17.2233 16.7154 18.2617 16.0838 19.2383C15.9276 19.4727 15.729 19.6582 15.4881 19.7949C15.2473 19.9316 14.9836 20 14.6971 20C14.3391 20 14.0168 19.8991 13.7303 19.6973C13.4439 19.4954 13.2453 19.222 13.1346 18.877L11.3963 13.6816C11.1685 13.7077 10.9374 13.724 10.703 13.7305C10.4686 13.737 10.2342 13.7435 9.99986 13.75C9.76549 13.75 9.53111 13.7467 9.29674 13.7402C9.06236 13.7337 8.83124 13.7142 8.60338 13.6816L6.86509 18.877C6.75442 19.2155 6.55585 19.4857 6.26939 19.6875C5.98293 19.8893 5.66067 19.9935 5.30259 20C5.01614 20 4.75246 19.9316 4.51158 19.7949C4.27069 19.6582 4.07213 19.4727 3.91588 19.2383C3.27786 18.2682 2.7147 17.2331 2.22642 16.1328C1.73814 15.0326 1.33124 13.8965 1.00572 12.7246C0.680199 11.5527 0.429548 10.3711 0.253767 9.17969C0.0779855 7.98828 -0.00664993 6.81315 -0.000139509 5.6543C-0.000139509 4.92513 0.110538 4.22201 0.331892 3.54492C0.553246 2.86784 0.875512 2.26562 1.29869 1.73828C1.72187 1.21094 2.2427 0.791016 2.86119 0.478516C3.47968 0.166016 4.18606 0.00651042 4.98033 0C5.44257 0 5.87551 0.0651042 6.27916 0.195312C6.6828 0.325521 7.08645 0.46875 7.49009 0.625C7.89374 0.78125 8.29413 0.924479 8.69127 1.05469C9.0884 1.1849 9.5246 1.25 9.99986 1.25C10.4621 1.25 10.895 1.1849 11.2987 1.05469C11.7023 0.924479 12.106 0.78125 12.5096 0.625C12.9133 0.46875 13.3137 0.325521 13.7108 0.195312C14.1079 0.0651042 14.5441 0 15.0194 0C15.8137 0 16.52 0.15625 17.1385 0.46875C17.757 0.78125 18.2779 1.20117 18.701 1.72852C19.1242 2.25586 19.4465 2.85807 19.6678 3.53516C19.8892 4.21224 19.9999 4.91862 19.9999 5.6543ZM18.7499 5.67383C18.7499 5.06836 18.6685 4.4987 18.5057 3.96484C18.343 3.43099 18.0988 2.96224 17.7733 2.55859C17.4478 2.15495 17.0376 1.83594 16.5428 1.60156C16.048 1.36719 15.4784 1.25 14.8338 1.25C14.4562 1.25 14.0949 1.3151 13.7499 1.44531C13.4048 1.57552 13.0402 1.71875 12.6561 1.875C12.272 2.03125 11.8684 2.17448 11.4452 2.30469C11.022 2.4349 10.5402 2.5 9.99986 2.5C9.4595 2.5 8.97773 2.4349 8.55455 2.30469C8.13137 2.17448 7.72773 2.03125 7.34361 1.875C6.9595 1.71875 6.5884 1.57552 6.23033 1.44531C5.87226 1.3151 5.47512 1.25 5.03892 1.25C4.40741 1.25 3.85403 1.3737 3.37877 1.62109C2.90351 1.86849 2.50963 2.19727 2.19713 2.60742C1.88463 3.01758 1.647 3.48633 1.48424 4.01367C1.32148 4.54102 1.24335 5.0944 1.24986 5.67383C1.24986 6.31185 1.28567 6.9987 1.35728 7.73438C1.4289 8.47005 1.53957 9.23177 1.68931 10.0195C1.83905 10.8073 2.01809 11.5918 2.22642 12.373C2.43476 13.1543 2.6789 13.9225 2.95884 14.6777C3.23879 15.4329 3.54804 16.1361 3.88658 16.7871C4.22512 17.4382 4.5897 18.0306 4.98033 18.5645C5.07799 18.6882 5.20168 18.75 5.35142 18.75C5.42955 18.75 5.53046 18.6328 5.65416 18.3984C5.77786 18.1641 5.90806 17.8581 6.04478 17.4805C6.1815 17.1029 6.32799 16.6927 6.48424 16.25C6.64049 15.8073 6.78046 15.3743 6.90416 14.9512C7.02786 14.528 7.1483 14.1439 7.26549 13.7988C7.38267 13.4538 7.4608 13.2031 7.49986 13.0469C7.55194 12.8776 7.6496 12.7311 7.79283 12.6074C7.93606 12.4837 8.10533 12.4186 8.30064 12.4121C8.5871 12.4121 8.8703 12.4251 9.15025 12.4512C9.4302 12.4772 9.7134 12.4935 9.99986 12.5C10.2863 12.5 10.5695 12.487 10.8495 12.4609C11.1294 12.4349 11.4126 12.4186 11.6991 12.4121C11.8879 12.4121 12.0539 12.474 12.1971 12.5977C12.3404 12.7214 12.4413 12.8711 12.4999 13.0469C12.5519 13.2031 12.6301 13.4538 12.7342 13.7988C12.8384 14.1439 12.9556 14.5247 13.0858 14.9414C13.216 15.3581 13.3592 15.7943 13.5155 16.25C13.6717 16.7057 13.815 17.1159 13.9452 17.4805C14.0754 17.8451 14.2088 18.1478 14.3456 18.3887C14.4823 18.6296 14.5832 18.75 14.6483 18.75C14.798 18.75 14.9217 18.6882 15.0194 18.5645C15.41 18.0436 15.7746 17.4512 16.1131 16.7871C16.4517 16.123 16.7577 15.4199 17.0311 14.6777C17.3045 13.9355 17.5487 13.1706 17.7635 12.3828C17.9784 11.5951 18.1574 10.8105 18.3006 10.0293C18.4439 9.24805 18.5545 8.48633 18.6327 7.74414C18.7108 7.00195 18.7499 6.31185 18.7499 5.67383Z" fill="#4894FE"/>
</g>
<defs>
<clipPath id="clip0_538_3224">
<rect width="20" height="20" fill="white"/>
</clipPath>
</defs>
</svg>
