<svg width="25" height="25" viewBox="0 0 25 25" fill="none" xmlns="http://www.w3.org/2000/svg">
<path d="M16.4276 13.1898V3.65775C16.4276 2.70974 16.0667 1.80055 15.4242 1.1302C14.7817 0.45985 13.9103 0.083252 13.0016 0.083252C12.093 0.083252 11.2216 0.45985 10.5791 1.1302C9.93658 1.80055 9.57563 2.70974 9.57563 3.65775V13.1898C8.61688 13.94 7.90869 14.9859 7.55135 16.1794C7.19402 17.3729 7.20567 18.6535 7.58464 19.8397C7.96362 21.0259 8.69071 22.0576 9.66293 22.7887C10.6351 23.5198 11.8032 23.9133 13.0016 23.9133C14.2001 23.9133 15.3681 23.5198 16.3403 22.7887C17.3125 22.0576 18.0396 21.0259 18.4186 19.8397C18.7976 18.6535 18.8092 17.3729 18.4519 16.1794C18.0946 14.9859 17.3864 13.94 16.4276 13.1898ZM13.0016 2.46625C13.3045 2.46625 13.595 2.59178 13.8091 2.81523C14.0233 3.03868 14.1436 3.34175 14.1436 3.65775V7.23225H11.8596V3.65775C11.8596 3.34175 11.9799 3.03868 12.1941 2.81523C12.4083 2.59178 12.6987 2.46625 13.0016 2.46625Z" fill="#4894FE"/>
</svg>
