<svg width="25" height="25" viewBox="0 0 25 25" fill="none" xmlns="http://www.w3.org/2000/svg">
<path d="M3.23127 3.16092C3.38054 3.12347 3.53574 3.11578 3.68798 3.13831C3.84023 3.16083 3.98655 3.21313 4.11858 3.2922C4.25062 3.37128 4.36578 3.47559 4.4575 3.59917C4.54922 3.72276 4.6157 3.86321 4.65314 4.01249L6.15939 10.0422C6.18664 10.1603 6.23714 10.2718 6.30796 10.3702C6.37878 10.4686 6.46849 10.5518 6.57185 10.6152C6.67522 10.6785 6.79016 10.7206 6.90998 10.739C7.02979 10.7574 7.15207 10.7518 7.26968 10.7224C7.38728 10.693 7.49786 10.6405 7.59494 10.5679C7.69203 10.4953 7.77368 10.4041 7.83513 10.2996C7.89657 10.1951 7.93658 10.0795 7.95282 9.95933C7.96906 9.8392 7.9612 9.71704 7.9297 9.59999L6.28595 3.01874C6.24606 2.86861 6.23641 2.71206 6.25757 2.55818C6.27872 2.40429 6.33026 2.25615 6.40918 2.12236C6.4881 1.98857 6.59283 1.87181 6.71729 1.77886C6.84174 1.68591 6.98343 1.61863 7.13412 1.58093C7.28481 1.54324 7.44149 1.53587 7.59504 1.55927C7.7486 1.58267 7.89598 1.63636 8.0286 1.71723C8.16122 1.79809 8.27645 1.90452 8.36757 2.03031C8.45869 2.15611 8.5239 2.29876 8.55939 2.44999L10.3281 9.5328C10.3864 9.76818 10.5357 9.97079 10.7433 10.0961C10.9509 10.2213 11.1998 10.259 11.4352 10.2008C11.6706 10.1425 11.8732 9.9932 11.9984 9.78559C12.1237 9.57798 12.1614 9.32912 12.1031 9.09374L10.9813 4.54686C10.9058 4.24518 10.9534 3.92589 11.1133 3.65924C11.2733 3.39258 11.5327 3.20041 11.8344 3.12499C12.1361 3.04956 12.4554 3.09708 12.722 3.25707C12.9887 3.41706 13.1808 3.67643 13.2563 3.97811L14.4985 9.01405C14.529 9.13142 14.5824 9.24161 14.6556 9.33835C14.7287 9.43508 14.8202 9.51646 14.9249 9.57784C15.0295 9.63921 15.1451 9.67938 15.2653 9.69605C15.3854 9.71272 15.5076 9.70556 15.625 9.67499C15.7424 9.64441 15.8526 9.59102 15.9493 9.51786C16.0461 9.4447 16.1274 9.3532 16.1888 9.24859C16.2502 9.14398 16.2903 9.0283 16.307 8.90817C16.3237 8.78803 16.3165 8.66579 16.286 8.54842L15.625 6.1328C15.5473 5.83174 15.5924 5.51214 15.7503 5.24431C15.9083 4.97649 16.1661 4.78237 16.4672 4.70467C16.7683 4.62697 17.0879 4.67205 17.3557 4.82999C17.6235 4.98793 17.8176 5.2458 17.8953 5.54686L19.061 9.84999L19.0641 9.86092C19.0807 9.90467 19.0943 9.94946 19.1047 9.9953C19.3313 11.0953 19.5031 12.2375 19.5313 13.2609C19.5828 15.1719 19.2875 17.65 19.0469 19.3094C18.9388 20.027 18.6274 20.6986 18.1494 21.2447C17.6715 21.7908 17.047 22.1885 16.35 22.3906L13.5625 23.2156C11.3281 23.8765 8.98283 23.0344 7.46564 21.3859C6.15314 19.9562 4.4422 18.3703 2.7922 17.5875C2.28188 17.3508 1.88234 16.9267 1.67658 16.4031C1.56008 16.1081 1.53519 15.7848 1.60515 15.4754C1.67511 15.1661 1.83667 14.8849 2.06877 14.6687C2.57492 14.1782 3.20905 13.8403 3.89845 13.6937C4.13595 13.6458 4.38335 13.6239 4.64064 13.6281L2.3797 4.58124C2.34225 4.43196 2.33456 4.27677 2.35709 4.12452C2.37961 3.97227 2.43191 3.82596 2.51098 3.69392C2.59006 3.56188 2.69437 3.44672 2.81796 3.355C2.94154 3.26328 3.08199 3.19836 3.23127 3.16092ZM20.9844 1.5703C21.086 1.55573 21.1895 1.56135 21.289 1.58682C21.3885 1.61229 21.4819 1.65711 21.5641 1.71874C22.812 2.73765 23.7281 4.10516 24.1956 5.64686C24.6631 7.18857 24.6609 8.83458 24.1891 10.375C24.144 10.5389 24.0457 10.6831 23.9096 10.7849C23.7735 10.8868 23.6075 10.9404 23.4375 10.9375L23.2188 10.9062C23.0199 10.8482 22.8521 10.7136 22.7525 10.5319C22.6529 10.3502 22.6295 10.1364 22.6875 9.93749C23.0706 8.70208 23.0791 7.38089 22.712 6.14064C22.345 4.90039 21.6187 3.79667 20.625 2.96874C20.5014 2.87596 20.408 2.74858 20.3568 2.60273C20.3056 2.45688 20.2988 2.29911 20.3372 2.14939C20.3757 1.99966 20.4577 1.86472 20.5729 1.76164C20.6881 1.65856 20.8313 1.59197 20.9844 1.5703ZM19.9844 4.04686C19.9017 3.98731 19.8079 3.94488 19.7086 3.92205C19.6092 3.89923 19.5063 3.89647 19.4059 3.91393C19.3055 3.93139 19.2096 3.96873 19.1238 4.02376C19.038 4.07878 18.964 4.15038 18.9063 4.23436C18.8451 4.31518 18.8007 4.40733 18.7754 4.50547C18.7501 4.6036 18.7446 4.70578 18.7592 4.80607C18.7737 4.90635 18.808 5.00276 18.8601 5.08969C18.9121 5.17662 18.981 5.25235 19.0625 5.31249C19.5167 5.7071 19.8678 6.20642 20.0856 6.76725C20.3034 7.32809 20.3813 7.93354 20.3125 8.53124C20.304 8.6339 20.3158 8.73723 20.3474 8.8353C20.3789 8.93336 20.4296 9.02422 20.4964 9.10264C20.5632 9.18106 20.6448 9.2455 20.7366 9.29224C20.8284 9.33898 20.9286 9.3671 21.0313 9.37499C21.2281 9.37562 21.4179 9.30194 21.5627 9.16869C21.7076 9.03543 21.7968 8.85242 21.8125 8.65624C21.9098 7.79688 21.7938 6.92681 21.475 6.12289C21.1562 5.31897 20.6442 4.60596 19.9844 4.04686Z" fill="#4894FE"/>
</svg>
