<svg width="15" height="20" viewBox="0 0 15 20" fill="none" xmlns="http://www.w3.org/2000/svg">
<path d="M7.47656 0.204838C7.42156 0.140597 7.35329 0.0890261 7.27647 0.0536673C7.19964 0.0183084 7.11607 0 7.03149 0C6.94692 0 6.86335 0.0183084 6.78652 0.0536673C6.7097 0.0890261 6.64143 0.140597 6.58643 0.204838C5.04053 2.01294 0 8.26392 0 12.8943C0 17.2092 2.7168 19.9255 7.03125 19.9255C11.3457 19.9255 14.0625 17.2092 14.0625 12.8943C14.0625 8.26392 9.02197 2.01294 7.47656 0.204838ZM7.8125 17.3865C7.71865 17.3867 7.62613 17.3643 7.54271 17.3213C7.4593 17.2783 7.38744 17.2159 7.33317 17.1394C7.2789 17.0628 7.24382 16.9743 7.23088 16.8814C7.21793 16.7884 7.22751 16.6937 7.25879 16.6052C7.29874 16.4898 7.3741 16.3899 7.47413 16.3197C7.57416 16.2496 7.69376 16.2128 7.81592 16.2146C8.5915 16.2129 9.33483 15.9041 9.88325 15.3557C10.4317 14.8072 10.7405 14.0639 10.7422 13.2883C10.7404 13.1662 10.7772 13.0466 10.8473 12.9465C10.9175 12.8465 11.0174 12.7712 11.1328 12.7312C11.2213 12.6999 11.316 12.6903 11.4089 12.7033C11.5019 12.7162 11.5904 12.7513 11.6669 12.8056C11.7435 12.8599 11.8059 12.9317 11.8489 13.0151C11.8919 13.0985 11.9143 13.1911 11.9141 13.2849C11.9129 14.3724 11.4804 15.4149 10.7115 16.1839C9.94252 16.9528 8.89995 17.3853 7.8125 17.3865Z" fill="#4894FE"/>
</svg>
